<mxfile host="app.diagrams.net" modified="2024-03-24T17:39:20.616Z" agent="Mozilla/5.0 (Windows NT 10.0; Win64; x64) AppleWebKit/537.36 (KHTML, like Gecko) Chrome/122.0.0.0 Safari/537.36" etag="8nOq0AckhfecCSAnToD2" version="24.1.0" type="github">
  <diagram name="Page-1" id="uOJZ_3tTdW4th-i7hOvJ">
    <mxGraphModel dx="4654" dy="2250" grid="0" gridSize="10" guides="1" tooltips="1" connect="1" arrows="1" fold="1" page="1" pageScale="1" pageWidth="850" pageHeight="1100" math="0" shadow="0">
      <root>
        <mxCell id="0" />
        <mxCell id="1" parent="0" />
        <mxCell id="j1qhZ2HC0AlBlO9P_FFu-2" style="edgeStyle=orthogonalEdgeStyle;rounded=0;orthogonalLoop=1;jettySize=auto;html=1;exitX=0.417;exitY=1.017;exitDx=0;exitDy=0;endArrow=none;endFill=0;entryX=0;entryY=0;entryDx=50;entryDy=0;entryPerimeter=0;exitPerimeter=0;" parent="1" source="BBo-fvt_Tt6ZGGIQ310o-14" target="j1qhZ2HC0AlBlO9P_FFu-5" edge="1">
          <mxGeometry relative="1" as="geometry">
            <mxPoint x="659" y="706" as="targetPoint" />
          </mxGeometry>
        </mxCell>
        <mxCell id="XEzbZRxbkvyP-NRLjkvZ-20" style="edgeStyle=orthogonalEdgeStyle;rounded=0;orthogonalLoop=1;jettySize=auto;html=1;exitX=0.5;exitY=0;exitDx=0;exitDy=0;entryX=0.5;entryY=1;entryDx=0;entryDy=0;" edge="1" parent="1" source="BBo-fvt_Tt6ZGGIQ310o-14" target="XEzbZRxbkvyP-NRLjkvZ-18">
          <mxGeometry relative="1" as="geometry" />
        </mxCell>
        <mxCell id="BBo-fvt_Tt6ZGGIQ310o-14" value="Item" style="rounded=0;whiteSpace=wrap;html=1;" parent="1" vertex="1">
          <mxGeometry x="498" y="520" width="120" height="60" as="geometry" />
        </mxCell>
        <mxCell id="XEzbZRxbkvyP-NRLjkvZ-10" style="edgeStyle=orthogonalEdgeStyle;rounded=0;orthogonalLoop=1;jettySize=auto;html=1;exitX=0;exitY=0.5;exitDx=0;exitDy=0;" edge="1" parent="1" source="BBo-fvt_Tt6ZGGIQ310o-16" target="XEzbZRxbkvyP-NRLjkvZ-12">
          <mxGeometry relative="1" as="geometry">
            <mxPoint x="272" y="219" as="targetPoint" />
          </mxGeometry>
        </mxCell>
        <mxCell id="XEzbZRxbkvyP-NRLjkvZ-17" style="edgeStyle=orthogonalEdgeStyle;rounded=0;orthogonalLoop=1;jettySize=auto;html=1;exitX=0.5;exitY=1;exitDx=0;exitDy=0;endArrow=none;endFill=0;" edge="1" parent="1" source="BBo-fvt_Tt6ZGGIQ310o-16" target="XEzbZRxbkvyP-NRLjkvZ-18">
          <mxGeometry relative="1" as="geometry">
            <mxPoint x="561" y="383" as="targetPoint" />
          </mxGeometry>
        </mxCell>
        <mxCell id="BBo-fvt_Tt6ZGGIQ310o-16" value="Auction" style="rounded=0;whiteSpace=wrap;html=1;" parent="1" vertex="1">
          <mxGeometry x="501" y="215" width="120" height="60" as="geometry" />
        </mxCell>
        <mxCell id="BBo-fvt_Tt6ZGGIQ310o-19" value="Customer Service Log" style="rounded=0;whiteSpace=wrap;html=1;" parent="1" vertex="1">
          <mxGeometry x="-352" y="428" width="120" height="60" as="geometry" />
        </mxCell>
        <mxCell id="BBo-fvt_Tt6ZGGIQ310o-20" value="Sales Report" style="rounded=0;whiteSpace=wrap;html=1;" parent="1" vertex="1">
          <mxGeometry x="-830" y="42" width="120" height="60" as="geometry" />
        </mxCell>
        <mxCell id="BBo-fvt_Tt6ZGGIQ310o-21" value="Start Date" style="ellipse;whiteSpace=wrap;html=1;" parent="1" vertex="1">
          <mxGeometry x="656" y="595.5" width="70" height="30" as="geometry" />
        </mxCell>
        <mxCell id="BBo-fvt_Tt6ZGGIQ310o-22" value="&lt;u&gt;BidID&lt;/u&gt;" style="ellipse;whiteSpace=wrap;html=1;" parent="1" vertex="1">
          <mxGeometry x="706" y="117" width="70" height="30" as="geometry" />
        </mxCell>
        <mxCell id="BBo-fvt_Tt6ZGGIQ310o-23" value="EndDate" style="ellipse;whiteSpace=wrap;html=1;" parent="1" vertex="1">
          <mxGeometry x="411" y="643" width="70" height="35" as="geometry" />
        </mxCell>
        <mxCell id="BBo-fvt_Tt6ZGGIQ310o-24" value="ItemID (FK)" style="ellipse;whiteSpace=wrap;html=1;" parent="1" vertex="1">
          <mxGeometry x="646" y="17" width="70" height="30" as="geometry" />
        </mxCell>
        <mxCell id="BBo-fvt_Tt6ZGGIQ310o-25" value="Bid Amount" style="ellipse;whiteSpace=wrap;html=1;" parent="1" vertex="1">
          <mxGeometry x="-795" y="398" width="70" height="30" as="geometry" />
        </mxCell>
        <mxCell id="BBo-fvt_Tt6ZGGIQ310o-26" value="BidderID (FK)" style="ellipse;whiteSpace=wrap;html=1;" parent="1" vertex="1">
          <mxGeometry x="-589" y="407" width="70" height="30" as="geometry" />
        </mxCell>
        <mxCell id="BBo-fvt_Tt6ZGGIQ310o-27" value="BidTime" style="ellipse;whiteSpace=wrap;html=1;" parent="1" vertex="1">
          <mxGeometry x="778" y="147" width="70" height="30" as="geometry" />
        </mxCell>
        <mxCell id="BBo-fvt_Tt6ZGGIQ310o-28" value="Category" style="ellipse;whiteSpace=wrap;html=1;" parent="1" vertex="1">
          <mxGeometry x="372" y="565.5" width="70" height="30" as="geometry" />
        </mxCell>
        <mxCell id="BBo-fvt_Tt6ZGGIQ310o-29" value="Description" style="ellipse;whiteSpace=wrap;html=1;" parent="1" vertex="1">
          <mxGeometry x="662.5" y="470.5" width="70" height="30" as="geometry" />
        </mxCell>
        <mxCell id="BBo-fvt_Tt6ZGGIQ310o-30" value="Title" style="ellipse;whiteSpace=wrap;html=1;" parent="1" vertex="1">
          <mxGeometry x="711" y="505.5" width="70" height="30" as="geometry" />
        </mxCell>
        <mxCell id="BBo-fvt_Tt6ZGGIQ310o-31" value="&lt;u&gt;ItemID&lt;/u&gt;" style="ellipse;whiteSpace=wrap;html=1;" parent="1" vertex="1">
          <mxGeometry x="671" y="551.5" width="70" height="30" as="geometry" />
        </mxCell>
        <mxCell id="BBo-fvt_Tt6ZGGIQ310o-33" value="" style="endArrow=none;html=1;rounded=0;entryX=1;entryY=0.5;entryDx=0;entryDy=0;exitX=0;exitY=0.75;exitDx=0;exitDy=0;" parent="1" source="BBo-fvt_Tt6ZGGIQ310o-14" target="BBo-fvt_Tt6ZGGIQ310o-28" edge="1">
          <mxGeometry width="50" height="50" relative="1" as="geometry">
            <mxPoint x="278" y="556.5" as="sourcePoint" />
            <mxPoint x="328" y="506.5" as="targetPoint" />
          </mxGeometry>
        </mxCell>
        <mxCell id="BBo-fvt_Tt6ZGGIQ310o-35" value="" style="endArrow=none;html=1;rounded=0;exitX=1;exitY=0.5;exitDx=0;exitDy=0;entryX=0;entryY=0;entryDx=0;entryDy=0;" parent="1" source="BBo-fvt_Tt6ZGGIQ310o-14" target="BBo-fvt_Tt6ZGGIQ310o-31" edge="1">
          <mxGeometry width="50" height="50" relative="1" as="geometry">
            <mxPoint x="328" y="416.5" as="sourcePoint" />
            <mxPoint x="668" y="546.5" as="targetPoint" />
          </mxGeometry>
        </mxCell>
        <mxCell id="BBo-fvt_Tt6ZGGIQ310o-36" value="" style="endArrow=none;html=1;rounded=0;entryX=0;entryY=0.5;entryDx=0;entryDy=0;exitX=1;exitY=0;exitDx=0;exitDy=0;" parent="1" source="BBo-fvt_Tt6ZGGIQ310o-14" target="BBo-fvt_Tt6ZGGIQ310o-30" edge="1">
          <mxGeometry width="50" height="50" relative="1" as="geometry">
            <mxPoint x="358" y="416.5" as="sourcePoint" />
            <mxPoint x="303" y="396.5" as="targetPoint" />
          </mxGeometry>
        </mxCell>
        <mxCell id="BBo-fvt_Tt6ZGGIQ310o-37" value="" style="endArrow=none;html=1;rounded=0;entryX=0;entryY=1;entryDx=0;entryDy=0;exitX=0.75;exitY=0;exitDx=0;exitDy=0;" parent="1" source="BBo-fvt_Tt6ZGGIQ310o-14" target="BBo-fvt_Tt6ZGGIQ310o-29" edge="1">
          <mxGeometry width="50" height="50" relative="1" as="geometry">
            <mxPoint x="358" y="416.5" as="sourcePoint" />
            <mxPoint x="383" y="396.5" as="targetPoint" />
          </mxGeometry>
        </mxCell>
        <mxCell id="BBo-fvt_Tt6ZGGIQ310o-38" value="" style="endArrow=none;html=1;rounded=0;entryX=0.5;entryY=0;entryDx=0;entryDy=0;exitX=0;exitY=1;exitDx=0;exitDy=0;" parent="1" source="BBo-fvt_Tt6ZGGIQ310o-14" target="BBo-fvt_Tt6ZGGIQ310o-23" edge="1">
          <mxGeometry width="50" height="50" relative="1" as="geometry">
            <mxPoint x="582" y="593.5" as="sourcePoint" />
            <mxPoint x="438" y="446.5" as="targetPoint" />
          </mxGeometry>
        </mxCell>
        <mxCell id="BBo-fvt_Tt6ZGGIQ310o-39" value="" style="endArrow=none;html=1;rounded=0;entryX=0;entryY=0;entryDx=0;entryDy=0;exitX=1;exitY=1;exitDx=0;exitDy=0;" parent="1" source="BBo-fvt_Tt6ZGGIQ310o-14" target="BBo-fvt_Tt6ZGGIQ310o-21" edge="1">
          <mxGeometry width="50" height="50" relative="1" as="geometry">
            <mxPoint x="418" y="446.5" as="sourcePoint" />
            <mxPoint x="438" y="432.5" as="targetPoint" />
          </mxGeometry>
        </mxCell>
        <mxCell id="BBo-fvt_Tt6ZGGIQ310o-40" value="Minimum Price" style="ellipse;whiteSpace=wrap;html=1;" parent="1" vertex="1">
          <mxGeometry x="374" y="437" width="70" height="30" as="geometry" />
        </mxCell>
        <mxCell id="BBo-fvt_Tt6ZGGIQ310o-41" value="" style="endArrow=none;html=1;rounded=0;entryX=0;entryY=0;entryDx=0;entryDy=0;exitX=0.5;exitY=1;exitDx=0;exitDy=0;" parent="1" source="BBo-fvt_Tt6ZGGIQ310o-40" target="BBo-fvt_Tt6ZGGIQ310o-14" edge="1">
          <mxGeometry width="50" height="50" relative="1" as="geometry">
            <mxPoint x="418" y="446.5" as="sourcePoint" />
            <mxPoint x="438" y="432.5" as="targetPoint" />
          </mxGeometry>
        </mxCell>
        <mxCell id="BBo-fvt_Tt6ZGGIQ310o-42" value="SellerID (FK)" style="ellipse;whiteSpace=wrap;html=1;" parent="1" vertex="1">
          <mxGeometry x="400" y="503" width="70" height="30" as="geometry" />
        </mxCell>
        <mxCell id="BBo-fvt_Tt6ZGGIQ310o-43" value="WinnerID (FK)" style="ellipse;whiteSpace=wrap;html=1;" parent="1" vertex="1">
          <mxGeometry x="-636.48" y="544" width="70" height="30" as="geometry" />
        </mxCell>
        <mxCell id="BBo-fvt_Tt6ZGGIQ310o-44" value="" style="endArrow=none;html=1;rounded=0;entryX=1;entryY=0.5;entryDx=0;entryDy=0;exitX=0;exitY=0;exitDx=0;exitDy=0;" parent="1" source="BBo-fvt_Tt6ZGGIQ310o-14" target="BBo-fvt_Tt6ZGGIQ310o-42" edge="1">
          <mxGeometry width="50" height="50" relative="1" as="geometry">
            <mxPoint x="418" y="461.5" as="sourcePoint" />
            <mxPoint x="438" y="461.5" as="targetPoint" />
          </mxGeometry>
        </mxCell>
        <mxCell id="BBo-fvt_Tt6ZGGIQ310o-45" value="" style="endArrow=none;html=1;rounded=0;entryX=0.5;entryY=0;entryDx=0;entryDy=0;" parent="1" target="BBo-fvt_Tt6ZGGIQ310o-43" edge="1">
          <mxGeometry width="50" height="50" relative="1" as="geometry">
            <mxPoint x="-596" y="521" as="sourcePoint" />
            <mxPoint x="-646.48" y="519" as="targetPoint" />
          </mxGeometry>
        </mxCell>
        <mxCell id="BBo-fvt_Tt6ZGGIQ310o-46" value="" style="endArrow=none;html=1;rounded=0;entryX=1;entryY=0.5;entryDx=0;entryDy=0;exitX=0;exitY=0.5;exitDx=0;exitDy=0;" parent="1" edge="1">
          <mxGeometry width="50" height="50" relative="1" as="geometry">
            <mxPoint x="776" y="124" as="sourcePoint" />
            <mxPoint x="743" y="79" as="targetPoint" />
          </mxGeometry>
        </mxCell>
        <mxCell id="BBo-fvt_Tt6ZGGIQ310o-47" value="" style="endArrow=none;html=1;rounded=0;entryX=1;entryY=1;entryDx=0;entryDy=0;exitX=1;exitY=0;exitDx=0;exitDy=0;" parent="1" source="BBo-fvt_Tt6ZGGIQ310o-27" edge="1" target="XEzbZRxbkvyP-NRLjkvZ-7">
          <mxGeometry width="50" height="50" relative="1" as="geometry">
            <mxPoint x="539" y="227" as="sourcePoint" />
            <mxPoint x="579" y="117" as="targetPoint" />
          </mxGeometry>
        </mxCell>
        <mxCell id="BBo-fvt_Tt6ZGGIQ310o-48" value="" style="endArrow=none;html=1;rounded=0;entryX=0;entryY=0;entryDx=0;entryDy=0;exitX=0.5;exitY=1;exitDx=0;exitDy=0;" parent="1" source="BBo-fvt_Tt6ZGGIQ310o-22" edge="1">
          <mxGeometry width="50" height="50" relative="1" as="geometry">
            <mxPoint x="559" y="141" as="sourcePoint" />
            <mxPoint x="603" y="87" as="targetPoint" />
          </mxGeometry>
        </mxCell>
        <mxCell id="BBo-fvt_Tt6ZGGIQ310o-49" value="" style="endArrow=none;html=1;rounded=0;entryX=0.5;entryY=0;entryDx=0;entryDy=0;exitX=0.5;exitY=1;exitDx=0;exitDy=0;" parent="1" source="BBo-fvt_Tt6ZGGIQ310o-24" edge="1">
          <mxGeometry width="50" height="50" relative="1" as="geometry">
            <mxPoint x="594" y="87" as="sourcePoint" />
            <mxPoint x="639" y="87" as="targetPoint" />
          </mxGeometry>
        </mxCell>
        <mxCell id="BBo-fvt_Tt6ZGGIQ310o-50" value="" style="endArrow=none;html=1;rounded=0;exitX=0;exitY=0.5;exitDx=0;exitDy=0;" parent="1" edge="1">
          <mxGeometry width="50" height="50" relative="1" as="geometry">
            <mxPoint x="682" y="81" as="sourcePoint" />
            <mxPoint x="665.3076923076924" y="88.15384615384619" as="targetPoint" />
          </mxGeometry>
        </mxCell>
        <mxCell id="BBo-fvt_Tt6ZGGIQ310o-51" value="Status" style="ellipse;whiteSpace=wrap;html=1;" parent="1" vertex="1">
          <mxGeometry x="636" y="49" width="70" height="30" as="geometry" />
        </mxCell>
        <mxCell id="BBo-fvt_Tt6ZGGIQ310o-52" value="ItemID (FK)" style="ellipse;whiteSpace=wrap;html=1;" parent="1" vertex="1">
          <mxGeometry x="698" y="-33" width="70" height="30" as="geometry" />
        </mxCell>
        <mxCell id="BBo-fvt_Tt6ZGGIQ310o-53" value="&lt;u&gt;AuctionID&lt;/u&gt;" style="ellipse;whiteSpace=wrap;html=1;" parent="1" vertex="1">
          <mxGeometry x="653" y="206" width="70" height="30" as="geometry" />
        </mxCell>
        <mxCell id="BBo-fvt_Tt6ZGGIQ310o-54" value="IsActive" style="ellipse;whiteSpace=wrap;html=1;" parent="1" vertex="1">
          <mxGeometry x="115" y="390" width="70" height="30" as="geometry" />
        </mxCell>
        <mxCell id="BBo-fvt_Tt6ZGGIQ310o-55" value="ItemCriteria" style="ellipse;whiteSpace=wrap;html=1;" parent="1" vertex="1">
          <mxGeometry x="146" y="510" width="70" height="30" as="geometry" />
        </mxCell>
        <mxCell id="BBo-fvt_Tt6ZGGIQ310o-56" value="UserID (FK)" style="ellipse;whiteSpace=wrap;html=1;" parent="1" vertex="1">
          <mxGeometry x="155" y="428" width="70" height="30" as="geometry" />
        </mxCell>
        <mxCell id="BBo-fvt_Tt6ZGGIQ310o-57" value="&lt;u&gt;AlertID&lt;/u&gt;" style="ellipse;whiteSpace=wrap;html=1;" parent="1" vertex="1">
          <mxGeometry x="149" y="465" width="70" height="30" as="geometry" />
        </mxCell>
        <mxCell id="BBo-fvt_Tt6ZGGIQ310o-58" value="" style="endArrow=none;html=1;rounded=0;exitX=0;exitY=1;exitDx=0;exitDy=0;entryX=1;entryY=0;entryDx=0;entryDy=0;" parent="1" source="BBo-fvt_Tt6ZGGIQ310o-54" target="VE3p5YPLKzqPOuRlAWxd-5" edge="1">
          <mxGeometry width="50" height="50" relative="1" as="geometry">
            <mxPoint x="279" y="365" as="sourcePoint" />
            <mxPoint x="287" y="243" as="targetPoint" />
          </mxGeometry>
        </mxCell>
        <mxCell id="BBo-fvt_Tt6ZGGIQ310o-59" value="" style="endArrow=none;html=1;rounded=0;entryX=1;entryY=1;entryDx=0;entryDy=0;exitX=0;exitY=0.5;exitDx=0;exitDy=0;" parent="1" source="BBo-fvt_Tt6ZGGIQ310o-57" target="VE3p5YPLKzqPOuRlAWxd-5" edge="1">
          <mxGeometry width="50" height="50" relative="1" as="geometry">
            <mxPoint x="148" y="618.5" as="sourcePoint" />
            <mxPoint x="165.99999999999955" y="576.5" as="targetPoint" />
          </mxGeometry>
        </mxCell>
        <mxCell id="BBo-fvt_Tt6ZGGIQ310o-60" value="" style="endArrow=none;html=1;rounded=0;entryX=1;entryY=0.5;entryDx=0;entryDy=0;exitX=0.5;exitY=1;exitDx=0;exitDy=0;" parent="1" source="BBo-fvt_Tt6ZGGIQ310o-56" target="VE3p5YPLKzqPOuRlAWxd-5" edge="1">
          <mxGeometry width="50" height="50" relative="1" as="geometry">
            <mxPoint x="162" y="590.5" as="sourcePoint" />
            <mxPoint x="195.99999999999955" y="576.5" as="targetPoint" />
          </mxGeometry>
        </mxCell>
        <mxCell id="BBo-fvt_Tt6ZGGIQ310o-61" value="" style="endArrow=none;html=1;rounded=0;entryX=0.5;entryY=1;entryDx=0;entryDy=0;exitX=0;exitY=1;exitDx=0;exitDy=0;" parent="1" source="BBo-fvt_Tt6ZGGIQ310o-55" target="VE3p5YPLKzqPOuRlAWxd-5" edge="1">
          <mxGeometry width="50" height="50" relative="1" as="geometry">
            <mxPoint x="213" y="593.5" as="sourcePoint" />
            <mxPoint x="225.99999999999955" y="576.5" as="targetPoint" />
          </mxGeometry>
        </mxCell>
        <mxCell id="BBo-fvt_Tt6ZGGIQ310o-62" value="" style="endArrow=none;html=1;rounded=0;entryX=0.5;entryY=1;entryDx=0;entryDy=0;exitX=1;exitY=0.5;exitDx=0;exitDy=0;" parent="1" source="BBo-fvt_Tt6ZGGIQ310o-16" target="BBo-fvt_Tt6ZGGIQ310o-53" edge="1">
          <mxGeometry width="50" height="50" relative="1" as="geometry">
            <mxPoint x="767" y="385" as="sourcePoint" />
            <mxPoint x="817" y="335" as="targetPoint" />
          </mxGeometry>
        </mxCell>
        <mxCell id="BBo-fvt_Tt6ZGGIQ310o-65" value="WinningBidID (FK)" style="ellipse;whiteSpace=wrap;html=1;" parent="1" vertex="1">
          <mxGeometry x="403" y="306" width="80" height="40" as="geometry" />
        </mxCell>
        <mxCell id="BBo-fvt_Tt6ZGGIQ310o-66" value="" style="endArrow=none;html=1;rounded=0;entryX=1;entryY=0;entryDx=0;entryDy=0;exitX=0;exitY=1;exitDx=0;exitDy=0;" parent="1" source="BBo-fvt_Tt6ZGGIQ310o-16" target="BBo-fvt_Tt6ZGGIQ310o-65" edge="1">
          <mxGeometry width="50" height="50" relative="1" as="geometry">
            <mxPoint x="837" y="325" as="sourcePoint" />
            <mxPoint x="512" y="328" as="targetPoint" />
          </mxGeometry>
        </mxCell>
        <mxCell id="BBo-fvt_Tt6ZGGIQ310o-67" value="ParentCategoryID (FK)" style="ellipse;whiteSpace=wrap;html=1;" parent="1" vertex="1">
          <mxGeometry x="-705" y="815" width="110" height="40" as="geometry" />
        </mxCell>
        <mxCell id="BBo-fvt_Tt6ZGGIQ310o-68" value="Name" style="ellipse;whiteSpace=wrap;html=1;" parent="1" vertex="1">
          <mxGeometry x="-775" y="820" width="70" height="30" as="geometry" />
        </mxCell>
        <mxCell id="BBo-fvt_Tt6ZGGIQ310o-69" value="&lt;u&gt;CategoryID&lt;/u&gt;" style="ellipse;whiteSpace=wrap;html=1;" parent="1" vertex="1">
          <mxGeometry x="-845" y="820" width="70" height="30" as="geometry" />
        </mxCell>
        <mxCell id="BBo-fvt_Tt6ZGGIQ310o-70" value="" style="endArrow=none;html=1;rounded=0;entryX=0.5;entryY=1;entryDx=0;entryDy=0;exitX=0.25;exitY=0;exitDx=0;exitDy=0;" parent="1" target="BBo-fvt_Tt6ZGGIQ310o-69" edge="1">
          <mxGeometry width="50" height="50" relative="1" as="geometry">
            <mxPoint x="-741" y="896" as="sourcePoint" />
            <mxPoint x="-785" y="860" as="targetPoint" />
          </mxGeometry>
        </mxCell>
        <mxCell id="BBo-fvt_Tt6ZGGIQ310o-71" value="" style="endArrow=none;html=1;rounded=0;entryX=0.5;entryY=1;entryDx=0;entryDy=0;exitX=0.5;exitY=0;exitDx=0;exitDy=0;" parent="1" target="BBo-fvt_Tt6ZGGIQ310o-68" edge="1">
          <mxGeometry width="50" height="50" relative="1" as="geometry">
            <mxPoint x="-711" y="896" as="sourcePoint" />
            <mxPoint x="-800" y="860" as="targetPoint" />
          </mxGeometry>
        </mxCell>
        <mxCell id="BBo-fvt_Tt6ZGGIQ310o-72" value="" style="endArrow=none;html=1;rounded=0;entryX=0.5;entryY=1;entryDx=0;entryDy=0;exitX=0.75;exitY=0;exitDx=0;exitDy=0;" parent="1" target="BBo-fvt_Tt6ZGGIQ310o-67" edge="1">
          <mxGeometry width="50" height="50" relative="1" as="geometry">
            <mxPoint x="-681" y="896" as="sourcePoint" />
            <mxPoint x="-730" y="860" as="targetPoint" />
          </mxGeometry>
        </mxCell>
        <mxCell id="BBo-fvt_Tt6ZGGIQ310o-73" value="Total Earnings" style="ellipse;whiteSpace=wrap;html=1;" parent="1" vertex="1">
          <mxGeometry x="-778" y="-19" width="70" height="30" as="geometry" />
        </mxCell>
        <mxCell id="BBo-fvt_Tt6ZGGIQ310o-74" value="Date Generated" style="ellipse;whiteSpace=wrap;html=1;" parent="1" vertex="1">
          <mxGeometry x="-835" y="-42" width="70" height="30" as="geometry" />
        </mxCell>
        <mxCell id="BBo-fvt_Tt6ZGGIQ310o-75" value="&lt;u&gt;ReportID&lt;/u&gt;" style="ellipse;whiteSpace=wrap;html=1;" parent="1" vertex="1">
          <mxGeometry x="-992" y="23" width="70" height="30" as="geometry" />
        </mxCell>
        <mxCell id="BBo-fvt_Tt6ZGGIQ310o-76" value="Earning Details" style="ellipse;whiteSpace=wrap;html=1;" parent="1" vertex="1">
          <mxGeometry x="-625" y="168" width="70" height="30" as="geometry" />
        </mxCell>
        <mxCell id="BBo-fvt_Tt6ZGGIQ310o-77" value="" style="endArrow=none;html=1;rounded=0;entryX=1;entryY=1;entryDx=0;entryDy=0;exitX=0;exitY=0;exitDx=0;exitDy=0;" parent="1" source="BBo-fvt_Tt6ZGGIQ310o-20" target="BBo-fvt_Tt6ZGGIQ310o-75" edge="1">
          <mxGeometry width="50" height="50" relative="1" as="geometry">
            <mxPoint x="-875" y="288" as="sourcePoint" />
            <mxPoint x="-825" y="238" as="targetPoint" />
          </mxGeometry>
        </mxCell>
        <mxCell id="BBo-fvt_Tt6ZGGIQ310o-78" value="" style="endArrow=none;html=1;rounded=0;entryX=0.5;entryY=1;entryDx=0;entryDy=0;exitX=0.25;exitY=0;exitDx=0;exitDy=0;" parent="1" source="BBo-fvt_Tt6ZGGIQ310o-20" target="BBo-fvt_Tt6ZGGIQ310o-74" edge="1">
          <mxGeometry width="50" height="50" relative="1" as="geometry">
            <mxPoint x="-745" y="218" as="sourcePoint" />
            <mxPoint x="-775" y="204" as="targetPoint" />
          </mxGeometry>
        </mxCell>
        <mxCell id="BBo-fvt_Tt6ZGGIQ310o-79" value="" style="endArrow=none;html=1;rounded=0;entryX=0.5;entryY=1;entryDx=0;entryDy=0;exitX=0.5;exitY=0;exitDx=0;exitDy=0;" parent="1" source="BBo-fvt_Tt6ZGGIQ310o-20" target="BBo-fvt_Tt6ZGGIQ310o-73" edge="1">
          <mxGeometry width="50" height="50" relative="1" as="geometry">
            <mxPoint x="-715" y="218" as="sourcePoint" />
            <mxPoint x="-720" y="208" as="targetPoint" />
          </mxGeometry>
        </mxCell>
        <mxCell id="BBo-fvt_Tt6ZGGIQ310o-80" value="" style="endArrow=none;html=1;rounded=0;entryX=0.5;entryY=1;entryDx=0;entryDy=0;exitX=1;exitY=0;exitDx=0;exitDy=0;" parent="1" source="BBo-fvt_Tt6ZGGIQ310o-20" edge="1">
          <mxGeometry width="50" height="50" relative="1" as="geometry">
            <mxPoint x="-685" y="218" as="sourcePoint" />
            <mxPoint x="-650" y="208" as="targetPoint" />
          </mxGeometry>
        </mxCell>
        <mxCell id="BBo-fvt_Tt6ZGGIQ310o-81" value="Action" style="ellipse;whiteSpace=wrap;html=1;" parent="1" vertex="1">
          <mxGeometry x="-272" y="348" width="70" height="30" as="geometry" />
        </mxCell>
        <mxCell id="BBo-fvt_Tt6ZGGIQ310o-82" value="Representative ID (FK)" style="ellipse;whiteSpace=wrap;html=1;" parent="1" vertex="1">
          <mxGeometry x="-362" y="348" width="90" height="40" as="geometry" />
        </mxCell>
        <mxCell id="BBo-fvt_Tt6ZGGIQ310o-83" value="&lt;u&gt;LogID&lt;/u&gt;" style="ellipse;whiteSpace=wrap;html=1;" parent="1" vertex="1">
          <mxGeometry x="-442" y="353" width="70" height="30" as="geometry" />
        </mxCell>
        <mxCell id="BBo-fvt_Tt6ZGGIQ310o-84" value="Details" style="ellipse;whiteSpace=wrap;html=1;" parent="1" vertex="1">
          <mxGeometry x="-352" y="533" width="70" height="30" as="geometry" />
        </mxCell>
        <mxCell id="BBo-fvt_Tt6ZGGIQ310o-85" value="Action Date" style="ellipse;whiteSpace=wrap;html=1;" parent="1" vertex="1">
          <mxGeometry x="-279" y="538" width="70" height="30" as="geometry" />
        </mxCell>
        <mxCell id="BBo-fvt_Tt6ZGGIQ310o-86" value="" style="endArrow=none;html=1;rounded=0;entryX=0.5;entryY=1;entryDx=0;entryDy=0;exitX=0.5;exitY=0;exitDx=0;exitDy=0;" parent="1" source="BBo-fvt_Tt6ZGGIQ310o-84" target="BBo-fvt_Tt6ZGGIQ310o-19" edge="1">
          <mxGeometry width="50" height="50" relative="1" as="geometry">
            <mxPoint x="-452" y="523" as="sourcePoint" />
            <mxPoint x="-402" y="473" as="targetPoint" />
          </mxGeometry>
        </mxCell>
        <mxCell id="BBo-fvt_Tt6ZGGIQ310o-87" value="" style="endArrow=none;html=1;rounded=0;entryX=0.75;entryY=1;entryDx=0;entryDy=0;exitX=0.5;exitY=0;exitDx=0;exitDy=0;" parent="1" source="BBo-fvt_Tt6ZGGIQ310o-85" target="BBo-fvt_Tt6ZGGIQ310o-19" edge="1">
          <mxGeometry width="50" height="50" relative="1" as="geometry">
            <mxPoint x="-362" y="463" as="sourcePoint" />
            <mxPoint x="-342" y="468" as="targetPoint" />
          </mxGeometry>
        </mxCell>
        <mxCell id="BBo-fvt_Tt6ZGGIQ310o-88" value="" style="endArrow=none;html=1;rounded=0;entryX=0.25;entryY=0;entryDx=0;entryDy=0;exitX=1;exitY=1;exitDx=0;exitDy=0;" parent="1" source="BBo-fvt_Tt6ZGGIQ310o-83" target="BBo-fvt_Tt6ZGGIQ310o-19" edge="1">
          <mxGeometry width="50" height="50" relative="1" as="geometry">
            <mxPoint x="-362" y="423" as="sourcePoint" />
            <mxPoint x="-342" y="438" as="targetPoint" />
          </mxGeometry>
        </mxCell>
        <mxCell id="BBo-fvt_Tt6ZGGIQ310o-89" value="" style="endArrow=none;html=1;rounded=0;entryX=0.5;entryY=0;entryDx=0;entryDy=0;exitX=0.5;exitY=1;exitDx=0;exitDy=0;" parent="1" source="BBo-fvt_Tt6ZGGIQ310o-82" target="BBo-fvt_Tt6ZGGIQ310o-19" edge="1">
          <mxGeometry width="50" height="50" relative="1" as="geometry">
            <mxPoint x="-372" y="389" as="sourcePoint" />
            <mxPoint x="-312" y="438" as="targetPoint" />
          </mxGeometry>
        </mxCell>
        <mxCell id="BBo-fvt_Tt6ZGGIQ310o-90" value="" style="endArrow=none;html=1;rounded=0;entryX=0.75;entryY=0;entryDx=0;entryDy=0;exitX=0.5;exitY=1;exitDx=0;exitDy=0;" parent="1" source="BBo-fvt_Tt6ZGGIQ310o-81" target="BBo-fvt_Tt6ZGGIQ310o-19" edge="1">
          <mxGeometry width="50" height="50" relative="1" as="geometry">
            <mxPoint x="-307" y="398" as="sourcePoint" />
            <mxPoint x="-282" y="438" as="targetPoint" />
          </mxGeometry>
        </mxCell>
        <mxCell id="frw_D5HhV09Jrf7qXdkJ-1" value="&lt;b&gt;USER&lt;/b&gt;(UserID:int, UserName:varchar(256), Password:varchar(256), &lt;span style=&quot;white-space: pre;&quot;&gt;&#x9;&lt;/span&gt;Email:varchar(256),AccountType:ENUM(&#39;Buyer&#39;, &#39;Seller&#39;,&lt;div&gt;&lt;span style=&quot;white-space: pre;&quot;&gt;&#x9;&lt;/span&gt;PRIMARY KEY(UserID))&lt;/div&gt;" style="text;html=1;align=left;verticalAlign=middle;whiteSpace=wrap;rounded=0;" parent="1" vertex="1">
          <mxGeometry x="-1237" y="700" width="415" height="50" as="geometry" />
        </mxCell>
        <mxCell id="frw_D5HhV09Jrf7qXdkJ-2" value="" style="group" parent="1" vertex="1" connectable="0">
          <mxGeometry x="-304" y="86" width="260" height="115" as="geometry" />
        </mxCell>
        <mxCell id="BBo-fvt_Tt6ZGGIQ310o-1" value="User" style="rounded=0;whiteSpace=wrap;html=1;" parent="frw_D5HhV09Jrf7qXdkJ-2" vertex="1">
          <mxGeometry x="90" y="55" width="120" height="60" as="geometry" />
        </mxCell>
        <mxCell id="BBo-fvt_Tt6ZGGIQ310o-2" value="&lt;u&gt;UserID&lt;/u&gt;" style="ellipse;whiteSpace=wrap;html=1;" parent="frw_D5HhV09Jrf7qXdkJ-2" vertex="1">
          <mxGeometry x="30" width="70" height="30" as="geometry" />
        </mxCell>
        <mxCell id="BBo-fvt_Tt6ZGGIQ310o-3" value="UserName" style="ellipse;whiteSpace=wrap;html=1;" parent="frw_D5HhV09Jrf7qXdkJ-2" vertex="1">
          <mxGeometry x="110" width="70" height="30" as="geometry" />
        </mxCell>
        <mxCell id="BBo-fvt_Tt6ZGGIQ310o-4" value="Password" style="ellipse;whiteSpace=wrap;html=1;" parent="frw_D5HhV09Jrf7qXdkJ-2" vertex="1">
          <mxGeometry x="190" width="70" height="30" as="geometry" />
        </mxCell>
        <mxCell id="BBo-fvt_Tt6ZGGIQ310o-5" value="Email" style="ellipse;whiteSpace=wrap;html=1;" parent="frw_D5HhV09Jrf7qXdkJ-2" vertex="1">
          <mxGeometry y="40" width="70" height="30" as="geometry" />
        </mxCell>
        <mxCell id="BBo-fvt_Tt6ZGGIQ310o-6" value="Account Type" style="ellipse;whiteSpace=wrap;html=1;" parent="frw_D5HhV09Jrf7qXdkJ-2" vertex="1">
          <mxGeometry y="80" width="70" height="30" as="geometry" />
        </mxCell>
        <mxCell id="BBo-fvt_Tt6ZGGIQ310o-9" value="" style="endArrow=none;html=1;rounded=0;exitX=1;exitY=0.5;exitDx=0;exitDy=0;entryX=0;entryY=0.5;entryDx=0;entryDy=0;" parent="frw_D5HhV09Jrf7qXdkJ-2" source="BBo-fvt_Tt6ZGGIQ310o-6" target="BBo-fvt_Tt6ZGGIQ310o-1" edge="1">
          <mxGeometry width="50" height="50" relative="1" as="geometry">
            <mxPoint x="110" y="160" as="sourcePoint" />
            <mxPoint x="160" y="110" as="targetPoint" />
          </mxGeometry>
        </mxCell>
        <mxCell id="BBo-fvt_Tt6ZGGIQ310o-10" value="" style="endArrow=none;html=1;rounded=0;exitX=1;exitY=0.5;exitDx=0;exitDy=0;entryX=0;entryY=0.5;entryDx=0;entryDy=0;" parent="frw_D5HhV09Jrf7qXdkJ-2" source="BBo-fvt_Tt6ZGGIQ310o-5" target="BBo-fvt_Tt6ZGGIQ310o-1" edge="1">
          <mxGeometry width="50" height="50" relative="1" as="geometry">
            <mxPoint x="80" y="105" as="sourcePoint" />
            <mxPoint x="95" y="90" as="targetPoint" />
          </mxGeometry>
        </mxCell>
        <mxCell id="BBo-fvt_Tt6ZGGIQ310o-11" value="" style="endArrow=none;html=1;rounded=0;exitX=0.5;exitY=1;exitDx=0;exitDy=0;entryX=0.25;entryY=0;entryDx=0;entryDy=0;" parent="frw_D5HhV09Jrf7qXdkJ-2" source="BBo-fvt_Tt6ZGGIQ310o-2" target="BBo-fvt_Tt6ZGGIQ310o-1" edge="1">
          <mxGeometry width="50" height="50" relative="1" as="geometry">
            <mxPoint x="80" y="65" as="sourcePoint" />
            <mxPoint x="95" y="90" as="targetPoint" />
          </mxGeometry>
        </mxCell>
        <mxCell id="BBo-fvt_Tt6ZGGIQ310o-12" value="" style="endArrow=none;html=1;rounded=0;exitX=0.5;exitY=1;exitDx=0;exitDy=0;entryX=0.5;entryY=0;entryDx=0;entryDy=0;" parent="frw_D5HhV09Jrf7qXdkJ-2" source="BBo-fvt_Tt6ZGGIQ310o-3" target="BBo-fvt_Tt6ZGGIQ310o-1" edge="1">
          <mxGeometry width="50" height="50" relative="1" as="geometry">
            <mxPoint x="75" y="40" as="sourcePoint" />
            <mxPoint x="125" y="60" as="targetPoint" />
          </mxGeometry>
        </mxCell>
        <mxCell id="BBo-fvt_Tt6ZGGIQ310o-13" value="" style="endArrow=none;html=1;rounded=0;exitX=0.5;exitY=1;exitDx=0;exitDy=0;entryX=1;entryY=0;entryDx=0;entryDy=0;" parent="frw_D5HhV09Jrf7qXdkJ-2" source="BBo-fvt_Tt6ZGGIQ310o-4" target="BBo-fvt_Tt6ZGGIQ310o-1" edge="1">
          <mxGeometry width="50" height="50" relative="1" as="geometry">
            <mxPoint x="155" y="40" as="sourcePoint" />
            <mxPoint x="180" y="50" as="targetPoint" />
          </mxGeometry>
        </mxCell>
        <mxCell id="frw_D5HhV09Jrf7qXdkJ-3" value="&lt;b&gt;ITEM&lt;/b&gt;(ItemID:int, SellerID:int, WinnerID:int, Title:varchar(256&lt;span style=&quot;background-color: initial;&quot;&gt;),&amp;nbsp;&lt;/span&gt;Desc:varchar(256&lt;span style=&quot;background-color: initial;&quot;&gt;), &lt;span style=&quot;white-space: pre;&quot;&gt;&#x9;&lt;/span&gt;Start:date, End:date, MinPrice:float,&lt;/span&gt;&lt;div&gt;&lt;span style=&quot;background-color: initial;&quot;&gt;&lt;span style=&quot;white-space: pre;&quot;&gt;&#x9;&lt;/span&gt;PRIMARY KEY(ItemID),&lt;/span&gt;&lt;/div&gt;&lt;div&gt;&lt;span style=&quot;background-color: initial;&quot;&gt;&lt;span style=&quot;white-space: pre;&quot;&gt;&#x9;&lt;/span&gt;FOREIGN KEY(SelllerID) REFERENCES Bid)&lt;/span&gt;&lt;/div&gt;&lt;div&gt;&lt;span style=&quot;background-color: initial;&quot;&gt;&lt;br&gt;&lt;/span&gt;&lt;/div&gt;" style="text;html=1;align=left;verticalAlign=middle;whiteSpace=wrap;rounded=0;" parent="1" vertex="1">
          <mxGeometry x="-1226" y="886" width="450.5" height="50" as="geometry" />
        </mxCell>
        <mxCell id="frw_D5HhV09Jrf7qXdkJ-11" value="&lt;b&gt;BID&lt;/b&gt;(BidID:int, BidderID:int,&amp;nbsp;SellerID:int, WinnerID:int, &lt;span style=&quot;background-color: initial;&quot;&gt;BidTime:datetime, &lt;span style=&quot;white-space: pre;&quot;&gt;&#x9;&lt;/span&gt;End:date, BidAmt:float,&lt;/span&gt;&lt;div&gt;&lt;span style=&quot;background-color: initial;&quot;&gt;&lt;span style=&quot;white-space: pre;&quot;&gt;&#x9;&lt;/span&gt;PRIMARY KEY(BidID),&lt;/span&gt;&lt;/div&gt;&lt;div&gt;&lt;span style=&quot;background-color: initial;&quot;&gt;&lt;span style=&quot;white-space: pre;&quot;&gt;&#x9;&lt;/span&gt;FOREIGN KEY(SelllerID) REFERENCES USER,&amp;nbsp;&lt;/span&gt;&lt;/div&gt;&lt;div&gt;&lt;span style=&quot;background-color: initial;&quot;&gt;&lt;span style=&quot;white-space: pre;&quot;&gt;&#x9;&lt;/span&gt;FOREIGN KEY(BidderID) REFERENCES USER,&lt;/span&gt;&lt;/div&gt;&lt;div&gt;&lt;span style=&quot;background-color: initial;&quot;&gt;&lt;span style=&quot;white-space: pre;&quot;&gt;&#x9;&lt;/span&gt;FOREIGN KEY(ItemID) REFERENCES Item&lt;/span&gt;&lt;span style=&quot;background-color: initial;&quot;&gt;)&lt;/span&gt;&lt;/div&gt;&lt;div&gt;&lt;span style=&quot;background-color: initial;&quot;&gt;&lt;br&gt;&lt;/span&gt;&lt;/div&gt;" style="text;html=1;align=left;verticalAlign=middle;whiteSpace=wrap;rounded=0;" parent="1" vertex="1">
          <mxGeometry x="-1237" y="797" width="395" height="50" as="geometry" />
        </mxCell>
        <mxCell id="frw_D5HhV09Jrf7qXdkJ-12" value="SellerID (FK)" style="ellipse;whiteSpace=wrap;html=1;" parent="1" vertex="1">
          <mxGeometry x="-515" y="495" width="70" height="30" as="geometry" />
        </mxCell>
        <mxCell id="frw_D5HhV09Jrf7qXdkJ-18" value="" style="endArrow=none;html=1;rounded=0;exitX=0;exitY=0.5;exitDx=0;exitDy=0;" parent="1" source="frw_D5HhV09Jrf7qXdkJ-12" edge="1">
          <mxGeometry width="50" height="50" relative="1" as="geometry">
            <mxPoint x="-525" y="504" as="sourcePoint" />
            <mxPoint x="-537" y="478" as="targetPoint" />
          </mxGeometry>
        </mxCell>
        <mxCell id="VE3p5YPLKzqPOuRlAWxd-5" value="Alert" style="rhombus;whiteSpace=wrap;html=1;" parent="1" vertex="1">
          <mxGeometry x="59" y="428" width="80" height="56" as="geometry" />
        </mxCell>
        <mxCell id="VE3p5YPLKzqPOuRlAWxd-13" value="" style="shape=flexArrow;endArrow=classic;html=1;rounded=0;exitX=0;exitY=0.5;exitDx=0;exitDy=0;entryX=1;entryY=0.5;entryDx=0;entryDy=0;" parent="1" source="VE3p5YPLKzqPOuRlAWxd-5" target="BBo-fvt_Tt6ZGGIQ310o-19" edge="1">
          <mxGeometry width="50" height="50" relative="1" as="geometry">
            <mxPoint x="-183" y="643" as="sourcePoint" />
            <mxPoint x="-133" y="593" as="targetPoint" />
          </mxGeometry>
        </mxCell>
        <mxCell id="j1qhZ2HC0AlBlO9P_FFu-1" value="" style="endArrow=none;html=1;rounded=0;" parent="1" edge="1">
          <mxGeometry width="50" height="50" relative="1" as="geometry">
            <mxPoint x="-369" y="611" as="sourcePoint" />
            <mxPoint x="-319" y="561" as="targetPoint" />
          </mxGeometry>
        </mxCell>
        <mxCell id="Agbz9A7Q1Nn0gNZncGpz-1" value="" style="rhombus;whiteSpace=wrap;html=1;" parent="1" vertex="1">
          <mxGeometry x="-939" y="123" width="63" height="45" as="geometry" />
        </mxCell>
        <mxCell id="j1qhZ2HC0AlBlO9P_FFu-7" style="edgeStyle=orthogonalEdgeStyle;rounded=0;orthogonalLoop=1;jettySize=auto;html=1;exitX=0;exitY=1;exitDx=0;exitDy=0;exitPerimeter=0;endArrow=none;endFill=0;entryX=0.5;entryY=0;entryDx=0;entryDy=0;" parent="1" source="j1qhZ2HC0AlBlO9P_FFu-5" target="j1qhZ2HC0AlBlO9P_FFu-8" edge="1">
          <mxGeometry relative="1" as="geometry">
            <mxPoint x="498" y="915" as="targetPoint" />
          </mxGeometry>
        </mxCell>
        <mxCell id="Agbz9A7Q1Nn0gNZncGpz-6" value="" style="shape=flexArrow;endArrow=classic;html=1;rounded=0;exitX=0.5;exitY=0;exitDx=0;exitDy=0;entryX=0.5;entryY=1;entryDx=0;entryDy=0;" parent="1" source="Agbz9A7Q1Nn0gNZncGpz-1" target="BBo-fvt_Tt6ZGGIQ310o-20" edge="1">
          <mxGeometry width="50" height="50" relative="1" as="geometry">
            <mxPoint x="-460" y="512" as="sourcePoint" />
            <mxPoint x="-410" y="462" as="targetPoint" />
          </mxGeometry>
        </mxCell>
        <mxCell id="j1qhZ2HC0AlBlO9P_FFu-10" style="edgeStyle=orthogonalEdgeStyle;rounded=0;orthogonalLoop=1;jettySize=auto;html=1;exitX=0.5;exitY=1;exitDx=0;exitDy=0;exitPerimeter=0;entryX=0.5;entryY=0;entryDx=0;entryDy=0;endArrow=none;endFill=0;" parent="1" source="j1qhZ2HC0AlBlO9P_FFu-5" target="j1qhZ2HC0AlBlO9P_FFu-9" edge="1">
          <mxGeometry relative="1" as="geometry" />
        </mxCell>
        <mxCell id="j1qhZ2HC0AlBlO9P_FFu-11" style="edgeStyle=orthogonalEdgeStyle;rounded=0;orthogonalLoop=1;jettySize=auto;html=1;exitX=1;exitY=1;exitDx=0;exitDy=0;exitPerimeter=0;endArrow=none;endFill=0;" parent="1" source="j1qhZ2HC0AlBlO9P_FFu-5" target="j1qhZ2HC0AlBlO9P_FFu-12" edge="1">
          <mxGeometry relative="1" as="geometry">
            <mxPoint x="802" y="888" as="targetPoint" />
          </mxGeometry>
        </mxCell>
        <mxCell id="j1qhZ2HC0AlBlO9P_FFu-5" value="Sub Category" style="verticalLabelPosition=bottom;verticalAlign=top;html=1;shape=mxgraph.basic.acute_triangle;dx=0.5;" parent="1" vertex="1">
          <mxGeometry x="498" y="744" width="100" height="70" as="geometry" />
        </mxCell>
        <mxCell id="j1qhZ2HC0AlBlO9P_FFu-8" value="Sub-Cat1" style="whiteSpace=wrap;html=1;align=center;" parent="1" vertex="1">
          <mxGeometry x="372" y="913" width="100" height="40" as="geometry" />
        </mxCell>
        <mxCell id="j1qhZ2HC0AlBlO9P_FFu-9" value="Sub-Cat2" style="whiteSpace=wrap;html=1;align=center;" parent="1" vertex="1">
          <mxGeometry x="504" y="917" width="100" height="40" as="geometry" />
        </mxCell>
        <mxCell id="j1qhZ2HC0AlBlO9P_FFu-12" value="Sub-Cat n" style="whiteSpace=wrap;html=1;align=center;" parent="1" vertex="1">
          <mxGeometry x="636" y="915" width="100" height="40" as="geometry" />
        </mxCell>
        <mxCell id="j1qhZ2HC0AlBlO9P_FFu-13" value="&lt;b&gt;ALERT&lt;/b&gt;(AlertID:int, UserID:int, ItemID:int, ItemCriteria:varchar(256), &lt;span style=&quot;white-space: pre;&quot;&gt;&#x9;&lt;/span&gt;IsActive:bool,&lt;div&gt;&lt;span style=&quot;white-space: pre;&quot;&gt;&#x9;&lt;/span&gt;PRIMARY KEY(AlertID)&lt;/div&gt;&lt;div&gt;&lt;span style=&quot;white-space: pre;&quot;&gt;&#x9;&lt;/span&gt;FOREIGN KEY(UserID) references User,&lt;/div&gt;&lt;div&gt;&lt;span style=&quot;white-space: pre;&quot;&gt;&#x9;&lt;/span&gt;FOREIGN KEY(ItemID) references Item)&lt;br&gt;&lt;/div&gt;" style="text;html=1;align=left;verticalAlign=middle;whiteSpace=wrap;rounded=0;" parent="1" vertex="1">
          <mxGeometry x="-1279" y="625" width="415" height="50" as="geometry" />
        </mxCell>
        <mxCell id="XEzbZRxbkvyP-NRLjkvZ-3" value="" style="rhombus;whiteSpace=wrap;html=1;" vertex="1" parent="1">
          <mxGeometry x="-466" y="488" width="80" height="80" as="geometry" />
        </mxCell>
        <mxCell id="XEzbZRxbkvyP-NRLjkvZ-4" value="Posts" style="rhombus;whiteSpace=wrap;html=1;" vertex="1" parent="1">
          <mxGeometry x="194" y="-47" width="120" height="80" as="geometry" />
        </mxCell>
        <mxCell id="XEzbZRxbkvyP-NRLjkvZ-1" style="edgeStyle=orthogonalEdgeStyle;rounded=0;orthogonalLoop=1;jettySize=auto;html=1;exitX=1;exitY=0.5;exitDx=0;exitDy=0;endArrow=none;endFill=0;entryX=0;entryY=0.5;entryDx=0;entryDy=0;" edge="1" parent="1" source="BBo-fvt_Tt6ZGGIQ310o-1" target="XEzbZRxbkvyP-NRLjkvZ-4">
          <mxGeometry relative="1" as="geometry">
            <mxPoint x="288" y="10" as="targetPoint" />
            <Array as="points">
              <mxPoint x="4" y="171" />
              <mxPoint x="4" y="10" />
              <mxPoint x="160" y="10" />
              <mxPoint x="160" y="-7" />
            </Array>
          </mxGeometry>
        </mxCell>
        <mxCell id="XEzbZRxbkvyP-NRLjkvZ-14" style="edgeStyle=orthogonalEdgeStyle;rounded=0;orthogonalLoop=1;jettySize=auto;html=1;" edge="1" parent="1" source="XEzbZRxbkvyP-NRLjkvZ-7" target="XEzbZRxbkvyP-NRLjkvZ-15">
          <mxGeometry relative="1" as="geometry">
            <mxPoint x="545" y="124" as="targetPoint" />
          </mxGeometry>
        </mxCell>
        <mxCell id="XEzbZRxbkvyP-NRLjkvZ-7" value="Bid" style="whiteSpace=wrap;html=1;aspect=fixed;" vertex="1" parent="1">
          <mxGeometry x="507" y="-27" width="80" height="80" as="geometry" />
        </mxCell>
        <mxCell id="XEzbZRxbkvyP-NRLjkvZ-8" style="edgeStyle=orthogonalEdgeStyle;rounded=0;orthogonalLoop=1;jettySize=auto;html=1;exitX=0;exitY=0.5;exitDx=0;exitDy=0;entryX=1;entryY=0.5;entryDx=0;entryDy=0;" edge="1" parent="1" source="XEzbZRxbkvyP-NRLjkvZ-7" target="XEzbZRxbkvyP-NRLjkvZ-4">
          <mxGeometry relative="1" as="geometry">
            <Array as="points">
              <mxPoint x="507" y="-4" />
              <mxPoint x="345" y="-4" />
              <mxPoint x="345" y="-7" />
            </Array>
          </mxGeometry>
        </mxCell>
        <mxCell id="XEzbZRxbkvyP-NRLjkvZ-12" value="Creates" style="rhombus;whiteSpace=wrap;html=1;" vertex="1" parent="1">
          <mxGeometry x="232" y="179" width="80" height="80" as="geometry" />
        </mxCell>
        <mxCell id="XEzbZRxbkvyP-NRLjkvZ-13" style="edgeStyle=orthogonalEdgeStyle;rounded=0;orthogonalLoop=1;jettySize=auto;html=1;exitX=1;exitY=0.5;exitDx=0;exitDy=0;" edge="1" parent="1" source="BBo-fvt_Tt6ZGGIQ310o-1" target="XEzbZRxbkvyP-NRLjkvZ-12">
          <mxGeometry relative="1" as="geometry">
            <Array as="points">
              <mxPoint x="4" y="171" />
              <mxPoint x="4" y="219" />
            </Array>
          </mxGeometry>
        </mxCell>
        <mxCell id="XEzbZRxbkvyP-NRLjkvZ-16" style="edgeStyle=orthogonalEdgeStyle;rounded=0;orthogonalLoop=1;jettySize=auto;html=1;exitX=0.5;exitY=1;exitDx=0;exitDy=0;entryX=0.5;entryY=0;entryDx=0;entryDy=0;endArrow=none;endFill=0;" edge="1" parent="1" source="XEzbZRxbkvyP-NRLjkvZ-15" target="BBo-fvt_Tt6ZGGIQ310o-16">
          <mxGeometry relative="1" as="geometry" />
        </mxCell>
        <mxCell id="XEzbZRxbkvyP-NRLjkvZ-15" value="On" style="rhombus;whiteSpace=wrap;html=1;" vertex="1" parent="1">
          <mxGeometry x="505" y="84" width="80" height="80" as="geometry" />
        </mxCell>
        <mxCell id="XEzbZRxbkvyP-NRLjkvZ-18" value="Includes" style="rhombus;whiteSpace=wrap;html=1;" vertex="1" parent="1">
          <mxGeometry x="518" y="335" width="80" height="80" as="geometry" />
        </mxCell>
        <mxCell id="XEzbZRxbkvyP-NRLjkvZ-19" value="Relationship" style="shape=rhombus;double=1;perimeter=rhombusPerimeter;whiteSpace=wrap;html=1;align=center;" vertex="1" parent="1">
          <mxGeometry x="-629" y="709" width="120" height="60" as="geometry" />
        </mxCell>
      </root>
    </mxGraphModel>
  </diagram>
</mxfile>
